<svg xmlns="http://www.w3.org/2000/svg" width="32" height="32" viewBox="0 0 32 32">
  <defs>
    <linearGradient id="grad1" x1="0%" y1="0%" x2="100%" y2="100%">
      <stop offset="0%" style="stop-color:#8A2BE2;stop-opacity:1" />
      <stop offset="50%" style="stop-color:#4B0082;stop-opacity:1" />
      <stop offset="100%" style="stop-color:#00BFFF;stop-opacity:1" />
    </linearGradient>
  </defs>
  
  <!-- Background circle -->
  <circle cx="16" cy="16" r="15" fill="url(#grad1)" stroke="#fff" stroke-width="1"/>
  
  <!-- Gaming controller shape -->
  <path d="M8 12 Q6 12 6 14 L6 18 Q6 20 8 20 L10 20 Q11 20 11 19 L11 17 Q11 16 12 16 L20 16 Q21 16 21 17 L21 19 Q21 20 22 20 L24 20 Q26 20 26 18 L26 14 Q26 12 24 12 Z" fill="#fff"/>
  
  <!-- D-pad -->
  <rect x="9" y="14" width="1" height="4" fill="url(#grad1)"/>
  <rect x="7" y="16" width="4" height="1" fill="url(#grad1)"/>
  
  <!-- Action buttons -->
  <circle cx="22" cy="15" r="1" fill="url(#grad1)"/>
  <circle cx="24" cy="17" r="1" fill="url(#grad1)"/>
  
  <!-- Heart symbol for "Help" -->
  <path d="M16 22 C16 22 12 19 12 16 Q12 14 14 14 Q16 14 16 16 Q16 14 18 14 Q20 14 20 16 C20 19 16 22 16 22 Z" fill="#ff6b6b" opacity="0.8"/>
</svg>